<svg width="240" height="64" viewBox="0 0 240 64" fill="none" xmlns="http://www.w3.org/2000/svg">
  <!-- Shield Background -->
  <path d="M32 4L8 16V32C8 46 20 58 32 60C44 58 56 46 56 32V16L32 4Z" 
        fill="white" fill-opacity="0.1" stroke="white" stroke-width="2"/>
  
  <!-- Crown Design -->
  <path d="M32 12L24 24L20 20L16 28H48L44 20L40 24L32 12Z" fill="white"/>
  
  <!-- Crown Jewels -->
  <circle cx="32" cy="14" r="2" fill="#e5e7eb"/>
  <circle cx="20" cy="20" r="1.5" fill="#e5e7eb"/>
  <circle cx="44" cy="20" r="1.5" fill="#e5e7eb"/>
  
  <!-- Letter K -->
  <path d="M24 32V48M24 40L32 32M24 40L32 48" 
        stroke="white" stroke-width="3" stroke-linecap="round" stroke-linejoin="round"/>
  
  <!-- Company Text -->
  <text x="74" y="28" font-family="Arial, sans-serif" font-size="20" font-weight="bold" fill="white">KINGSMEN</text>
  <text x="74" y="46" font-family="Arial, sans-serif" font-size="14" font-weight="300" fill="#e5e7eb">CONSULTANCY</text>
</svg>